<svg xmlns="http://www.w3.org/2000/svg" xmlns:xlink="http://www.w3.org/1999/xlink" width="200" zoomAndPan="magnify" viewBox="0 0 150 32.249999" height="43" preserveAspectRatio="xMidYMid meet" version="1.0"><defs><g/><clipPath id="id1"><path d="M 94.410156 1.269531 L 112.734375 1.269531 L 112.734375 30.585938 L 94.410156 30.585938 Z M 94.410156 1.269531 " clip-rule="nonzero"/></clipPath><clipPath id="id2"><path d="M 97 1.269531 L 110 1.269531 L 110 3 L 97 3 Z M 97 1.269531 " clip-rule="nonzero"/></clipPath><clipPath id="id3"><path d="M 95 1.269531 L 112 1.269531 L 112 5 L 95 5 Z M 95 1.269531 " clip-rule="nonzero"/></clipPath></defs><path fill="rgb(75.289917%, 39.608765%, 88.62915%)" d="M 110.257812 3.289062 C 108.074219 3.816406 105.824219 4.082031 103.574219 4.082031 C 101.328125 4.082031 99.078125 3.816406 96.894531 3.289062 C 96.773438 3.261719 96.671875 3.1875 96.609375 3.082031 C 96.550781 2.984375 96.535156 2.871094 96.5625 2.761719 C 96.621094 2.535156 96.863281 2.394531 97.097656 2.449219 C 101.335938 3.472656 105.816406 3.472656 110.050781 2.449219 C 110.285156 2.394531 110.527344 2.535156 110.585938 2.761719 C 110.617188 2.871094 110.597656 2.988281 110.539062 3.085938 C 110.476562 3.1875 110.375 3.261719 110.257812 3.289062 " fill-opacity="1" fill-rule="nonzero"/><g clip-path="url(#id1)"><path fill="rgb(75.289917%, 39.608765%, 88.62915%)" d="M 96.628906 5.414062 L 96.628906 4.417969 C 96.628906 4.417969 96.574219 3.773438 96.773438 3.53125 C 96.859375 3.421875 96.984375 3.359375 97.128906 3.355469 C 97.140625 3.351562 97.507812 3.300781 97.488281 1.628906 L 97.488281 1.394531 L 98.078125 1.394531 L 98.078125 1.625 C 98.085938 2.335938 98.015625 3.785156 97.21875 3.898438 C 97.214844 3.945312 97.214844 4.316406 97.214844 4.398438 L 97.21875 4.398438 L 97.21875 5.949219 L 96.941406 5.96875 C 95.855469 6.035156 95.003906 6.933594 95.003906 8.011719 L 95.003906 26.457031 C 95.003906 28.71875 97.949219 29.835938 104.273438 29.972656 C 107.746094 30.042969 110.191406 29.488281 111.355469 28.363281 C 111.886719 27.84375 112.148438 27.21875 112.148438 26.457031 L 112.148438 8.011719 C 112.148438 6.933594 111.296875 6.035156 110.207031 5.96875 L 109.929688 5.949219 L 109.929688 4.398438 L 109.933594 4.398438 C 109.933594 4.316406 109.933594 3.945312 109.929688 3.898438 C 109.132812 3.785156 109.058594 2.335938 109.066406 1.625 L 109.070312 1.394531 L 109.660156 1.394531 L 109.660156 1.628906 C 109.640625 3.300781 110.007812 3.351562 110.019531 3.355469 C 110.164062 3.359375 110.289062 3.421875 110.375 3.53125 C 110.554688 3.75 110.527344 4.292969 110.519531 4.398438 L 110.523438 4.398438 L 110.523438 5.414062 C 111.785156 5.625 112.738281 6.714844 112.738281 8.011719 L 112.738281 26.457031 C 112.738281 27.375 112.414062 28.15625 111.769531 28.78125 C 110.546875 29.964844 108.234375 30.5625 104.890625 30.5625 C 104.683594 30.5625 104.472656 30.5625 104.257812 30.558594 C 100.03125 30.464844 94.410156 29.941406 94.410156 26.457031 L 94.410156 8.011719 C 94.410156 6.714844 95.367188 5.625 96.628906 5.414062 " fill-opacity="1" fill-rule="nonzero"/></g><path fill="rgb(75.289917%, 39.608765%, 88.62915%)" d="M 110.492188 23.339844 L 111.082031 23.339844 L 111.082031 8.585938 C 111.082031 7.527344 110.261719 6.648438 109.214844 6.582031 L 109.175781 7.175781 C 109.914062 7.222656 110.492188 7.839844 110.492188 8.585938 L 110.492188 23.339844 " fill-opacity="1" fill-rule="nonzero"/><path fill="rgb(75.289917%, 39.608765%, 88.62915%)" d="M 97.050781 27.851562 C 97.050781 28.496094 99.972656 29.015625 103.574219 29.015625 C 107.179688 29.015625 110.101562 28.496094 110.101562 27.851562 C 110.101562 27.210938 107.179688 26.6875 103.574219 26.6875 C 99.972656 26.6875 97.050781 27.210938 97.050781 27.851562 " fill-opacity="1" fill-rule="nonzero"/><g clip-path="url(#id2)"><path fill="rgb(75.289917%, 39.608765%, 88.62915%)" d="M 99.199219 1.46875 C 99.527344 1.675781 101.363281 1.832031 103.574219 1.832031 C 105.789062 1.832031 107.621094 1.675781 107.953125 1.46875 L 109.648438 1.46875 C 109.546875 1.980469 106.867188 2.390625 103.574219 2.390625 C 100.28125 2.390625 97.605469 1.980469 97.5 1.46875 L 99.199219 1.46875 " fill-opacity="1" fill-rule="nonzero"/></g><g clip-path="url(#id3)"><path fill="rgb(48.239136%, 83.139038%, 98.429871%)" d="M 95.535156 3.535156 C 95.535156 3.976562 95.890625 4.335938 96.332031 4.335938 L 110.820312 4.335938 C 111.257812 4.335938 111.613281 3.976562 111.613281 3.535156 L 111.613281 2.085938 C 111.613281 1.644531 111.257812 1.285156 110.820312 1.285156 L 96.332031 1.285156 C 95.890625 1.285156 95.535156 1.644531 95.535156 2.085938 L 95.535156 3.535156 " fill-opacity="1" fill-rule="nonzero"/></g><g fill="rgb(48.239136%, 83.139038%, 98.429871%)" fill-opacity="1"><g transform="translate(26.754043, 25.472563)"><g><path d="M 7.984375 -18.34375 L 5.890625 -18.140625 L 5.890625 -4.921875 C 5.890625 -2.929688 5.804688 -1.472656 5.640625 -0.546875 C 5.429688 0.472656 5.015625 1.367188 4.390625 2.140625 C 3.765625 2.910156 3.019531 3.523438 2.15625 3.984375 C 1.300781 4.453125 0.421875 4.753906 -0.484375 4.890625 L -1.078125 4.046875 C -0.0859375 3.734375 0.757812 3.296875 1.46875 2.734375 C 2.1875 2.179688 2.703125 1.519531 3.015625 0.75 C 3.253906 0.0625 3.410156 -0.710938 3.484375 -1.578125 C 3.566406 -2.441406 3.609375 -3.597656 3.609375 -5.046875 L 3.609375 -18.140625 L 1.46875 -18.34375 L 1.46875 -19.5 L 7.984375 -19.5 Z M 7.984375 -18.34375 "/></g></g></g><g fill="rgb(48.239136%, 83.139038%, 98.429871%)" fill-opacity="1"><g transform="translate(35.839048, 25.472563)"><g><path d="M 1.828125 -1.359375 L 8.4375 -19.53125 L 10.390625 -19.53125 L 16.75 -1.359375 L 18.78125 -1.03125 L 18.78125 0 L 12.28125 0 L 12.28125 -1.03125 L 14.359375 -1.359375 L 12.9375 -5.53125 L 5.21875 -5.53125 L 3.8125 -1.359375 L 5.921875 -1.03125 L 5.921875 0 L 0.03125 0 L 0.03125 -1.03125 Z M 10.21875 -13.5625 L 9.140625 -17.0625 L 5.6875 -6.921875 L 12.453125 -6.921875 Z M 10.21875 -13.5625 "/></g></g></g><g fill="rgb(48.239136%, 83.139038%, 98.429871%)" fill-opacity="1"><g transform="translate(54.626732, 25.472563)"><g><path d="M 8.46875 -19.6875 C 10.570312 -19.6875 12.191406 -19.296875 13.328125 -18.515625 C 14.472656 -17.734375 15.046875 -16.382812 15.046875 -14.46875 C 15.046875 -13.15625 14.660156 -12.007812 13.890625 -11.03125 C 13.117188 -10.0625 12.082031 -9.367188 10.78125 -8.953125 L 10.984375 -8.859375 C 11.585938 -8.597656 12.160156 -8.070312 12.703125 -7.28125 C 13.253906 -6.488281 13.882812 -5.453125 14.59375 -4.171875 C 15.125 -3.222656 15.53125 -2.53125 15.8125 -2.09375 C 16.09375 -1.65625 16.351562 -1.410156 16.59375 -1.359375 L 18.015625 -1.03125 L 18.015625 0 L 14.484375 0 C 14.265625 0 14.015625 -0.222656 13.734375 -0.671875 C 13.460938 -1.128906 13.070312 -1.890625 12.5625 -2.953125 C 11.695312 -4.742188 10.921875 -6.132812 10.234375 -7.125 C 9.554688 -8.125 8.832031 -8.585938 8.0625 -8.515625 C 7.59375 -8.503906 6.835938 -8.5 5.796875 -8.5 L 5.796875 -1.359375 L 8.4375 -1.03125 L 8.4375 0 L 1.078125 0 L 1.078125 -1.03125 L 3.5 -1.359375 L 3.5 -18.046875 L 1.390625 -18.21875 L 1.390625 -19.5 L 4.625 -19.5 C 4.96875 -19.5 5.398438 -19.523438 5.921875 -19.578125 C 6.878906 -19.648438 7.726562 -19.6875 8.46875 -19.6875 Z M 8.125 -18.421875 C 7.988281 -18.410156 7.769531 -18.40625 7.46875 -18.40625 C 6.65625 -18.363281 6.097656 -18.300781 5.796875 -18.21875 L 5.796875 -9.828125 C 6.253906 -9.773438 7.066406 -9.75 8.234375 -9.75 C 9.660156 -9.75 10.757812 -10.125 11.53125 -10.875 C 12.300781 -11.625 12.6875 -12.734375 12.6875 -14.203125 C 12.6875 -15.609375 12.332031 -16.679688 11.625 -17.421875 C 10.925781 -18.160156 9.757812 -18.492188 8.125 -18.421875 Z M 8.125 -18.421875 "/></g></g></g><g fill="rgb(48.239136%, 83.139038%, 98.429871%)" fill-opacity="1"><g transform="translate(72.487902, 25.472563)"><g><path d="M 7.6875 0.28125 C 6.519531 0.28125 5.367188 0.164062 4.234375 -0.0625 C 3.109375 -0.289062 2.34375 -0.523438 1.9375 -0.765625 L 1.9375 -4.734375 L 2.984375 -4.734375 L 3.734375 -2.21875 C 4.191406 -1.738281 4.796875 -1.398438 5.546875 -1.203125 C 6.304688 -1.003906 7.117188 -0.90625 7.984375 -0.90625 C 9.078125 -0.90625 10.019531 -1.191406 10.8125 -1.765625 C 11.613281 -2.335938 12.015625 -3.195312 12.015625 -4.34375 C 12.015625 -5.03125 11.800781 -5.644531 11.375 -6.1875 C 10.957031 -6.726562 10.441406 -7.203125 9.828125 -7.609375 C 9.210938 -8.023438 8.378906 -8.515625 7.328125 -9.078125 C 6.210938 -9.660156 5.296875 -10.195312 4.578125 -10.6875 C 3.859375 -11.175781 3.257812 -11.765625 2.78125 -12.453125 C 2.300781 -13.140625 2.0625 -13.929688 2.0625 -14.828125 C 2.0625 -15.921875 2.375 -16.832031 3 -17.5625 C 3.625 -18.289062 4.398438 -18.828125 5.328125 -19.171875 C 6.253906 -19.515625 7.1875 -19.6875 8.125 -19.6875 C 9.257812 -19.6875 10.25 -19.585938 11.09375 -19.390625 C 11.9375 -19.191406 12.578125 -18.960938 13.015625 -18.703125 L 13.015625 -15.265625 L 12 -15.265625 L 11.09375 -17.703125 C 10.78125 -17.972656 10.34375 -18.175781 9.78125 -18.3125 C 9.226562 -18.457031 8.628906 -18.53125 7.984375 -18.53125 C 7.410156 -18.53125 6.832031 -18.414062 6.25 -18.1875 C 5.664062 -17.96875 5.171875 -17.609375 4.765625 -17.109375 C 4.367188 -16.609375 4.171875 -15.972656 4.171875 -15.203125 C 4.171875 -14.316406 4.539062 -13.550781 5.28125 -12.90625 C 6.03125 -12.257812 7.117188 -11.578125 8.546875 -10.859375 C 9.773438 -10.203125 10.757812 -9.632812 11.5 -9.15625 C 12.238281 -8.675781 12.867188 -8.085938 13.390625 -7.390625 C 13.910156 -6.703125 14.171875 -5.90625 14.171875 -5 C 14.171875 -3.226562 13.5625 -1.90625 12.34375 -1.03125 C 11.132812 -0.15625 9.582031 0.28125 7.6875 0.28125 Z M 7.6875 0.28125 "/></g></g></g><g fill="rgb(48.239136%, 83.139038%, 98.429871%)" fill-opacity="1"><g transform="translate(96.445343, 22.390944)"><g><path d="M 2.375 -4.109375 C 2.375 -4.285156 2.1875 -4.472656 1.8125 -4.671875 C 1.4375 -4.867188 1.03125 -5.019531 0.59375 -5.125 L 0.59375 -5.953125 C 1.070312 -6.066406 1.488281 -6.207031 1.84375 -6.375 C 2.195312 -6.539062 2.375 -6.710938 2.375 -6.890625 L 2.375 -10.609375 C 2.375 -11.085938 2.410156 -11.445312 2.484375 -11.6875 C 2.554688 -11.925781 2.6875 -12.085938 2.875 -12.171875 C 3.0625 -12.265625 3.332031 -12.3125 3.6875 -12.3125 C 4 -12.3125 4.269531 -12.289062 4.5 -12.25 C 4.738281 -12.21875 4.957031 -12.175781 5.15625 -12.125 C 5.363281 -12.070312 5.5 -12.039062 5.5625 -12.03125 L 5.5625 -11.453125 L 3.46875 -11.453125 L 3.46875 -6.921875 C 3.46875 -6.691406 3.398438 -6.5 3.265625 -6.34375 C 3.140625 -6.195312 2.976562 -6.070312 2.78125 -5.96875 C 2.59375 -5.875 2.289062 -5.726562 1.875 -5.53125 C 2.40625 -5.289062 2.800781 -5.066406 3.0625 -4.859375 C 3.332031 -4.648438 3.46875 -4.394531 3.46875 -4.09375 L 3.46875 0.46875 L 5.5625 0.46875 L 5.5625 1.046875 C 5.488281 1.066406 5.328125 1.101562 5.078125 1.15625 C 4.835938 1.21875 4.601562 1.265625 4.375 1.296875 C 4.144531 1.328125 3.90625 1.34375 3.65625 1.34375 C 3.3125 1.34375 3.046875 1.289062 2.859375 1.1875 C 2.679688 1.09375 2.554688 0.925781 2.484375 0.6875 C 2.410156 0.445312 2.375 0.09375 2.375 -0.375 Z M 2.375 -4.109375 "/></g></g></g><g fill="rgb(48.239136%, 83.139038%, 98.429871%)" fill-opacity="1"><g transform="translate(103.784316, 22.390944)"><g><path d="M 3.390625 -4.09375 C 3.390625 -4.394531 3.523438 -4.648438 3.796875 -4.859375 C 4.066406 -5.078125 4.457031 -5.300781 4.96875 -5.53125 C 4.53125 -5.75 4.21875 -5.90625 4.03125 -6 C 3.851562 -6.101562 3.703125 -6.226562 3.578125 -6.375 C 3.453125 -6.519531 3.390625 -6.703125 3.390625 -6.921875 L 3.390625 -11.453125 L 1.3125 -11.453125 L 1.296875 -12.03125 C 1.742188 -12.132812 2.082031 -12.207031 2.3125 -12.25 C 2.550781 -12.289062 2.835938 -12.3125 3.171875 -12.3125 C 3.535156 -12.3125 3.8125 -12.265625 4 -12.171875 C 4.1875 -12.085938 4.3125 -11.925781 4.375 -11.6875 C 4.445312 -11.445312 4.484375 -11.085938 4.484375 -10.609375 L 4.484375 -6.890625 C 4.484375 -6.710938 4.660156 -6.539062 5.015625 -6.375 C 5.367188 -6.207031 5.785156 -6.066406 6.265625 -5.953125 L 6.265625 -5.125 C 5.835938 -5.019531 5.429688 -4.867188 5.046875 -4.671875 C 4.671875 -4.472656 4.484375 -4.285156 4.484375 -4.109375 L 4.484375 -0.375 C 4.484375 0.09375 4.445312 0.445312 4.375 0.6875 C 4.3125 0.925781 4.1875 1.09375 4 1.1875 C 3.820312 1.289062 3.554688 1.34375 3.203125 1.34375 C 2.890625 1.34375 2.613281 1.320312 2.375 1.28125 C 2.132812 1.238281 1.910156 1.191406 1.703125 1.140625 C 1.503906 1.097656 1.367188 1.066406 1.296875 1.046875 L 1.3125 0.46875 L 3.390625 0.46875 Z M 3.390625 -4.09375 "/></g></g></g></svg>